<svg version="1" xmlns="http://www.w3.org/2000/svg" width="266.667" height="266.667" viewBox="0 0 200.000000 200.000000"><path d="M88 16.5c-13.3 3.7-21.1 9.9-26.7 21.1-3.1 6.4-3.7 8.8-4.1 15.8-.7 12.5 2 20.2 13.7 39.6 4.7 7.9 7 13.2 8.5 20.2l.6 2.8h43.9l6.9-13.8c15.2-29.9 17.4-44.6 9.3-61.9-4.2-8.9-11.8-16.5-20.9-21-6.7-3.3-8.4-3.7-16.6-4-5.9-.2-11 .3-14.6 1.2zm22.1 28.8c4.9 3.2 7.1 8 6.6 14.5-.3 4.1-1 5.9-3.3 8.3-4 4.2-7.6 5.9-12.6 5.9C91.9 74 86 67.5 86 57.8c0-5 .4-6.2 3.2-9.4 3.9-4.4 5.8-5.3 12.4-5.3 3.7-.1 6 .5 8.5 2.2zM82.1 123.4c-1.6 1.8-.6 5.4 1.6 5.8.8.2 8.8.1 17.7-.2l16.1-.5v-6l-17.1-.3c-14.1-.2-17.3 0-18.3 1.2zM83.8 135.1c-2.1 1.2-2.3 4-.6 5.7 1.9 1.9 32.2 1.7 33.8-.3 1.6-1.9.4-5.2-2.3-5.9-3.7-1-29.1-.6-30.9.5z"/><path d="M65 142c-9.3 5.1-13.3 11.5-11.6 18.5 1 4 7.3 10.2 12.9 12.9 13 6.1 34.9 8.2 51.1 4.7 16.7-3.5 24.6-8.2 28.1-16.4 2.1-5.1.7-10.1-4.2-14.9-3.8-3.7-11.3-7.7-14.5-7.8-1.4 0-7.5 8.7-6.6 9.4.1.2 2.6 1.1 5.4 2 2.8.9 6.1 2.7 7.3 4 1.9 2 2.1 2.8 1.1 4.6-2.6 4.9-18.5 9-34.5 9-18.6 0-34.5-5.2-34.5-11.2 0-2.1 4.8-5.4 10.3-6.9 4.3-1.1 4.4-1.7 1.5-6.9-2.8-4.8-4.4-5-11.8-1z"/><path d="M91.5 152c7.5 7.6 7.4 7.6 18.5-1.9l3.5-3-13.5-.1H86.6l4.9 5z"/></svg>